<svg xmlns="http://www.w3.org/2000/svg" viewBox="0 0 500 260" width="100%" height="100%">
  <!-- Left Emblem: Red Circle with White Waving Flag Bearer -->
  <g transform="translate(15, 10)">
    <!-- Red Circle -->
    <circle cx="115" cy="120" r="105" fill="#E31B23"/>
    
    <!-- White Flag and Bearer Silhouette -->
    <!-- Waving Flag -->
    <path d="M 38 90 C 65 55 105 50 145 62 C 120 85 90 90 38 90 Z" fill="#FFFFFF"/>
    <path d="M 40 92 C 75 92 110 80 142 63 L 152 76 C 115 95 70 108 40 92 Z" fill="#FFFFFF"/>
    
    <!-- Flagpole -->
    <path d="M 68 185 L 158 72 L 150 66 L 60 179 Z" fill="#FFFFFF"/>
    
    <!-- Bearer Body & Head -->
    <circle cx="92" cy="125" r="13" fill="#FFFFFF"/>
    <path d="M 78 175 C 70 150 82 135 98 135 C 108 145 102 165 92 178 C 86 182 80 180 78 175 Z" fill="#FFFFFF"/>
    <path d="M 90 140 C 110 135 125 120 135 105 L 125 98 C 115 115 100 128 90 140 Z" fill="#FFFFFF"/>
  </g>

  <!-- Right Branding Text -->
  <!-- SKFF Bold Serif Heading -->
  <text x="245" y="132" font-family="'Times New Roman', 'Georgia', 'Playfair Display', serif" font-size="96" font-weight="bold" fill="#1C1C1C" letter-spacing="2">SKFF</text>
  
  <!-- Tagline: Passion to Perform... -->
  <text x="246" y="174" font-family="'Georgia', 'Times New Roman', serif" font-style="italic" font-size="28" fill="#1C1C1C" letter-spacing="0.5">Passion to Perform...</text>
  
  <!-- Red Curved Underline Swoosh -->
  <path d="M 245 186 Q 360 196 480 180 Q 360 204 245 186 Z" fill="#E31B23"/>
</svg>
